<svg id="Layer_1" data-name="Layer 1" xmlns="http://www.w3.org/2000/svg" viewBox="0 0 184.64 61.7"><defs><style>.cls-1{fill:#fff;}</style></defs><title>logo</title><path class="cls-1" d="M199,70.4H48.38l-1-.4a20.66,20.66,0,0,1-12-11.86C31.28,47.49,34.06,37.07,38.07,27,43.34,13.66,54.54,9.19,60.75,9H91.13a0.18,0.18,0,0,1,.16.27L84.55,21.14a0.18,0.18,0,0,1-.16.09L61.2,21H60.86c-1.55.12-9.06,1.11-11.21,9.05-2.39,8.86-3.44,13.58-3.86,16.08a13.63,13.63,0,0,0-.13,3.53l0,0.35c0.47,4.76,4.52,9.26,9.3,9.26l142.33-.36a0.53,0.53,0,0,0,.18,0c3.17-.36,4.75-2.45,4.84-4.24,0-1,.13-2,0.22-3,0-.57.11-1.27,0.15-2a3.77,3.77,0,0,0-3.71-4H180.4c-1.72-.07-10.56-0.69-15.26-6.57a12.8,12.8,0,0,1-2.48-10.64c1.66-9,5-18.27,17.41-19.45C187.79,8.32,216.76,9,218,9l-2,11.86a0.17,0.17,0,0,1-.17.13c-8.29-.2-28.79-0.53-34.59,0a5.65,5.65,0,0,0-5.07,3.45c-0.51,1.07-1.71,4.73-.53,6.9,1,1.84,4.26,2.32,5.18,2.37h18c5.78,0,9.92,1.46,12.68,4.46,4,4.31,3.48,10,3.09,14.54-0.07.86-.15,1.72-0.19,2.58-0.46,9.37-9.42,13.82-14.65,15ZM45.52,48.5v0Z" transform="translate(-33.36 -8.7)"/><path class="cls-1" d="M160.26,24.47c1-5.33-.61-8.73-2.13-10.65a13.21,13.21,0,0,0-9.22-4.58H123l-6.29,47.71,10.31,0,2.42-18.52h10.7l8,18.52h10.65l-8.28-19.21C155.75,36.74,158.41,34.32,160.26,24.47Zm-8.85-1.66c-0.84,4.46-1.68,5.58-2,5.85-0.5.42-2.07,0.59-3.91,0.78H130.38l1.48-11.21h16.69a4.3,4.3,0,0,1,2.52,1.17C151.73,20.23,151.62,21.71,151.41,22.81Z" transform="translate(-33.36 -8.7)"/><path class="cls-1" d="M108,56.85L119.21,57,105.89,8.7H95.34l-27.22,48L79.21,57l6.41-11.14H105Zm-9.1-34.09,3.75,14.06H90.79Z" transform="translate(-33.36 -8.7)"/></svg>